<svg xmlns="http://www.w3.org/2000/svg" width="134.59" height="26.059" viewBox="0 0 134.59 26.059">
  <g id="그룹_24" data-name="그룹 24" transform="translate(1443.934 435.84)">
    <path id="패스_1" data-name="패스 1" d="M1.066,0V-24.062H7.684a5.023,5.023,0,0,1,3.91,1.442A6.066,6.066,0,0,1,12.906-18.4V-7.137a9.751,9.751,0,0,1-1.2,5.277Q10.514,0,7.52,0Zm4.84-4.252H6.74A1.154,1.154,0,0,0,8.066-5.537V-17.951A2.49,2.49,0,0,0,7.745-19.5a1.792,1.792,0,0,0-1.306-.349H5.906Zm8.859-17.514V-25.84H19.66v4.074ZM14.766,0V-20.508H19.66V0ZM27.344.219A6.471,6.471,0,0,1,23.857-.6,4.529,4.529,0,0,1,22-2.967a10.939,10.939,0,0,1-.561-3.719V-14.93a5.51,5.51,0,0,1,1.641-4.327,6.519,6.519,0,0,1,4.512-1.47q5.906,0,5.906,5.8v1.49q0,2.707-.055,3.637H26.332v3.965A8.326,8.326,0,0,0,26.4-4.765a1.925,1.925,0,0,0,.308.868.876.876,0,0,0,.772.342.885.885,0,0,0,.957-.663,6.406,6.406,0,0,0,.191-1.729V-7.916H33.5v1.162a11.3,11.3,0,0,1-.567,3.849A4.33,4.33,0,0,1,31.015-.567,7.283,7.283,0,0,1,27.344.219ZM26.3-12.236h2.324V-15a3.427,3.427,0,0,0-.273-1.593.885.885,0,0,0-.82-.485,1.041,1.041,0,0,0-.909.465A2.973,2.973,0,0,0,26.3-15ZM39.484.219a3.356,3.356,0,0,1-2.673-.841,4.011,4.011,0,0,1-.69-2.577V-15.982H34.74v-3.732h1.381v-4.348h4.758v4.348H42.26v3.732H40.879V-4.348a1.164,1.164,0,0,0,.164.711.776.776,0,0,0,.629.205,2.867,2.867,0,0,0,.588-.055V-.15Q42.1-.1,41.234.062A9.725,9.725,0,0,1,39.484.219Zm10.076,0A6.471,6.471,0,0,1,46.074-.6a4.529,4.529,0,0,1-1.859-2.365,10.939,10.939,0,0,1-.561-3.719V-14.93a5.51,5.51,0,0,1,1.641-4.327,6.519,6.519,0,0,1,4.512-1.47q5.906,0,5.906,5.8v1.49q0,2.707-.055,3.637H48.549v3.965a8.325,8.325,0,0,0,.068,1.073,1.925,1.925,0,0,0,.308.868.876.876,0,0,0,.772.342.885.885,0,0,0,.957-.663,6.406,6.406,0,0,0,.191-1.729V-7.916h4.867v1.162a11.3,11.3,0,0,1-.567,3.849A4.33,4.33,0,0,1,53.231-.567,7.283,7.283,0,0,1,49.561.219ZM48.521-12.236h2.324V-15a3.427,3.427,0,0,0-.273-1.593.885.885,0,0,0-.82-.485,1.041,1.041,0,0,0-.909.465A2.973,2.973,0,0,0,48.521-15ZM57.49,0V-20.508h4.977v2.283a3.477,3.477,0,0,1,1.258-1.859,3.7,3.7,0,0,1,2.27-.67v4.088a9.528,9.528,0,0,0-1.436.13,8,8,0,0,0-1.463.355q-.629.226-.629.5V0ZM73.842,0V-24.062h7.383a4.073,4.073,0,0,1,2.789.841,4.216,4.216,0,0,1,1.265,2.352,17.231,17.231,0,0,1,.321,3.548,8.191,8.191,0,0,1-.5,3.145,2.884,2.884,0,0,1-1.88,1.627,2.156,2.156,0,0,1,1.593,1.128,5.089,5.089,0,0,1,.458,2.317V0H80.527V-9.42q0-1.053-.431-1.306a2.863,2.863,0,0,0-1.388-.253V0Zm4.895-15.148H79.9q1,0,1-2.174a4.926,4.926,0,0,0-.219-1.846.831.831,0,0,0-.82-.437H78.736ZM90.836.219a3.812,3.812,0,0,1-2.6-.793,4.064,4.064,0,0,1-1.224-2.174,13.59,13.59,0,0,1-.328-3.131,10.63,10.63,0,0,1,.369-3.069,4.115,4.115,0,0,1,1.265-1.962,7.474,7.474,0,0,1,2.468-1.3l3.035-1.039v-2.105q0-1.654-1.08-1.654-.984,0-.984,1.34v1.23H86.994a2.338,2.338,0,0,1-.014-.28v-.39q0-3.062,1.442-4.341A6.785,6.785,0,0,1,93-20.727a7.125,7.125,0,0,1,2.939.581,4.75,4.75,0,0,1,2.058,1.716,4.931,4.931,0,0,1,.759,2.8V0H93.885V-2.434A3.791,3.791,0,0,1,92.709-.465,2.844,2.844,0,0,1,90.836.219Zm1.928-3.8a.814.814,0,0,0,.82-.506A2.726,2.726,0,0,0,93.8-5.182V-10.9A4.2,4.2,0,0,0,92.23-9.864a2.643,2.643,0,0,0-.561,1.825V-5.4Q91.67-3.582,92.764-3.582ZM100.639,0V-20.508h4.785v2.379a3.64,3.64,0,0,1,1.121-1.928,3.517,3.517,0,0,1,2.324-.67,3.752,3.752,0,0,1,2.1.567,3.063,3.063,0,0,1,1.224,1.5,4.445,4.445,0,0,1,1.319-1.538,3.777,3.777,0,0,1,2.167-.526A4.15,4.15,0,0,1,118.31-20a3.805,3.805,0,0,1,1.285,2.023,11.1,11.1,0,0,1,.362,2.987V0h-4.881V-15.066q0-1.982-1.012-1.982a.986.986,0,0,0-.82.362,2.1,2.1,0,0,0-.4.9,5.3,5.3,0,0,0-.109,1.066V0h-4.881V-15.066a5.39,5.39,0,0,0-.157-1.285.754.754,0,0,0-.8-.643,1,1,0,0,0-.848.4,2.293,2.293,0,0,0-.41.978,6.163,6.163,0,0,0-.109,1.142V0ZM127.49.219q-6.07,0-6.07-6.152V-7.561h4.922v2.406a1.9,1.9,0,0,0,.273,1.094.987.987,0,0,0,.875.4q1.066,0,1.066-1.6a3.044,3.044,0,0,0-.561-2,8.64,8.64,0,0,0-1.367-1.278l-2.611-2.01a7.555,7.555,0,0,1-1.873-2.023,5.758,5.758,0,0,1-.643-2.967,4.8,4.8,0,0,1,.841-2.912,5.033,5.033,0,0,1,2.229-1.709,7.937,7.937,0,0,1,3-.561q5.961,0,5.961,5.947v.383h-5.059v-.779a3.409,3.409,0,0,0-.212-1.189.81.81,0,0,0-.827-.574q-1.039,0-1.039,1.094a2.021,2.021,0,0,0,.875,1.736l3.035,2.215a9.833,9.833,0,0,1,2.386,2.434,6.522,6.522,0,0,1,.964,3.746A5.706,5.706,0,0,1,132.009-1.3,6.413,6.413,0,0,1,127.49.219Z" transform="translate(-1443 -410)" fill="#fff"/>
    <path id="패스_2" data-name="패스 2" d="M1.066,0V-24.062H7.684a5.023,5.023,0,0,1,3.91,1.442A6.066,6.066,0,0,1,12.906-18.4V-7.137a9.751,9.751,0,0,1-1.2,5.277Q10.514,0,7.52,0Zm4.84-4.252H6.74A1.154,1.154,0,0,0,8.066-5.537V-17.951A2.49,2.49,0,0,0,7.745-19.5a1.792,1.792,0,0,0-1.306-.349H5.906Zm8.859-17.514V-25.84H19.66v4.074ZM14.766,0V-20.508H19.66V0ZM27.344.219A6.471,6.471,0,0,1,23.857-.6,4.529,4.529,0,0,1,22-2.967a10.939,10.939,0,0,1-.561-3.719V-14.93a5.51,5.51,0,0,1,1.641-4.327,6.519,6.519,0,0,1,4.512-1.47q5.906,0,5.906,5.8v1.49q0,2.707-.055,3.637H26.332v3.965A8.326,8.326,0,0,0,26.4-4.765a1.925,1.925,0,0,0,.308.868.876.876,0,0,0,.772.342.885.885,0,0,0,.957-.663,6.406,6.406,0,0,0,.191-1.729V-7.916H33.5v1.162a11.3,11.3,0,0,1-.567,3.849A4.33,4.33,0,0,1,31.015-.567,7.283,7.283,0,0,1,27.344.219ZM26.3-12.236h2.324V-15a3.427,3.427,0,0,0-.273-1.593.885.885,0,0,0-.82-.485,1.041,1.041,0,0,0-.909.465A2.973,2.973,0,0,0,26.3-15ZM39.484.219a3.356,3.356,0,0,1-2.673-.841,4.011,4.011,0,0,1-.69-2.577V-15.982H34.74v-3.732h1.381v-4.348h4.758v4.348H42.26v3.732H40.879V-4.348a1.164,1.164,0,0,0,.164.711.776.776,0,0,0,.629.205,2.867,2.867,0,0,0,.588-.055V-.15Q42.1-.1,41.234.062A9.725,9.725,0,0,1,39.484.219Zm10.076,0A6.471,6.471,0,0,1,46.074-.6a4.529,4.529,0,0,1-1.859-2.365,10.939,10.939,0,0,1-.561-3.719V-14.93a5.51,5.51,0,0,1,1.641-4.327,6.519,6.519,0,0,1,4.512-1.47q5.906,0,5.906,5.8v1.49q0,2.707-.055,3.637H48.549v3.965a8.325,8.325,0,0,0,.068,1.073,1.925,1.925,0,0,0,.308.868.876.876,0,0,0,.772.342.885.885,0,0,0,.957-.663,6.406,6.406,0,0,0,.191-1.729V-7.916h4.867v1.162a11.3,11.3,0,0,1-.567,3.849A4.33,4.33,0,0,1,53.231-.567,7.283,7.283,0,0,1,49.561.219ZM48.521-12.236h2.324V-15a3.427,3.427,0,0,0-.273-1.593.885.885,0,0,0-.82-.485,1.041,1.041,0,0,0-.909.465A2.973,2.973,0,0,0,48.521-15ZM57.49,0V-20.508h4.977v2.283a3.477,3.477,0,0,1,1.258-1.859,3.7,3.7,0,0,1,2.27-.67v4.088a9.528,9.528,0,0,0-1.436.13,8,8,0,0,0-1.463.355q-.629.226-.629.5V0ZM73.842,0V-24.062h7.383a4.073,4.073,0,0,1,2.789.841,4.216,4.216,0,0,1,1.265,2.352,17.231,17.231,0,0,1,.321,3.548,8.191,8.191,0,0,1-.5,3.145,2.884,2.884,0,0,1-1.88,1.627,2.156,2.156,0,0,1,1.593,1.128,5.089,5.089,0,0,1,.458,2.317V0H80.527V-9.42q0-1.053-.431-1.306a2.863,2.863,0,0,0-1.388-.253V0Zm4.895-15.148H79.9q1,0,1-2.174a4.926,4.926,0,0,0-.219-1.846.831.831,0,0,0-.82-.437H78.736ZM90.836.219a3.812,3.812,0,0,1-2.6-.793,4.064,4.064,0,0,1-1.224-2.174,13.59,13.59,0,0,1-.328-3.131,10.63,10.63,0,0,1,.369-3.069,4.115,4.115,0,0,1,1.265-1.962,7.474,7.474,0,0,1,2.468-1.3l3.035-1.039v-2.105q0-1.654-1.08-1.654-.984,0-.984,1.34v1.23H86.994a2.338,2.338,0,0,1-.014-.28v-.39q0-3.062,1.442-4.341A6.785,6.785,0,0,1,93-20.727a7.125,7.125,0,0,1,2.939.581,4.75,4.75,0,0,1,2.058,1.716,4.931,4.931,0,0,1,.759,2.8V0H93.885V-2.434A3.791,3.791,0,0,1,92.709-.465,2.844,2.844,0,0,1,90.836.219Zm1.928-3.8a.814.814,0,0,0,.82-.506A2.726,2.726,0,0,0,93.8-5.182V-10.9A4.2,4.2,0,0,0,92.23-9.864a2.643,2.643,0,0,0-.561,1.825V-5.4Q91.67-3.582,92.764-3.582ZM100.639,0V-20.508h4.785v2.379a3.64,3.64,0,0,1,1.121-1.928,3.517,3.517,0,0,1,2.324-.67,3.752,3.752,0,0,1,2.1.567,3.063,3.063,0,0,1,1.224,1.5,4.445,4.445,0,0,1,1.319-1.538,3.777,3.777,0,0,1,2.167-.526A4.15,4.15,0,0,1,118.31-20a3.805,3.805,0,0,1,1.285,2.023,11.1,11.1,0,0,1,.362,2.987V0h-4.881V-15.066q0-1.982-1.012-1.982a.986.986,0,0,0-.82.362,2.1,2.1,0,0,0-.4.9,5.3,5.3,0,0,0-.109,1.066V0h-4.881V-15.066a5.39,5.39,0,0,0-.157-1.285.754.754,0,0,0-.8-.643,1,1,0,0,0-.848.4,2.293,2.293,0,0,0-.41.978,6.163,6.163,0,0,0-.109,1.142V0ZM127.49.219q-6.07,0-6.07-6.152V-7.561h4.922v2.406a1.9,1.9,0,0,0,.273,1.094.987.987,0,0,0,.875.4q1.066,0,1.066-1.6a3.044,3.044,0,0,0-.561-2,8.64,8.64,0,0,0-1.367-1.278l-2.611-2.01a7.555,7.555,0,0,1-1.873-2.023,5.758,5.758,0,0,1-.643-2.967,4.8,4.8,0,0,1,.841-2.912,5.033,5.033,0,0,1,2.229-1.709,7.937,7.937,0,0,1,3-.561q5.961,0,5.961,5.947v.383h-5.059v-.779a3.409,3.409,0,0,0-.212-1.189.81.81,0,0,0-.827-.574q-1.039,0-1.039,1.094a2.021,2.021,0,0,0,.875,1.736l3.035,2.215a9.833,9.833,0,0,1,2.386,2.434,6.522,6.522,0,0,1,.964,3.746A5.706,5.706,0,0,1,132.009-1.3,6.413,6.413,0,0,1,127.49.219Z" transform="translate(-1445 -410)"/>
  </g>
</svg>
