<svg xmlns="http://www.w3.org/2000/svg" width="410" height="220" viewBox="0 0 410 220">
  <g id="그룹_26" data-name="그룹 26" transform="translate(2202 998)">
    <rect id="사각형_94" data-name="사각형 94" width="410" height="220" transform="translate(-2202 -998)" fill="#dbdbdb"/>
    <path id="패스_7" data-name="패스 7" d="M-60.15,0l-.05-37.05,22.7.05v6.15l-15.3-.05v8.6h12.95v6.2H-52.8v9.9h15.85V0ZM-31.8,0V-29.9a12.517,12.517,0,0,1,1.025-5.15,8.006,8.006,0,0,1,3.25-3.65A11.121,11.121,0,0,1-21.7-40.05a15.658,15.658,0,0,1,3.125.3A13.071,13.071,0,0,1-16.05-39l-1.4,5.45a6.4,6.4,0,0,0-1.5-.525,9,9,0,0,0-1.9-.175,3.468,3.468,0,0,0-2.625,1.075A4.593,4.593,0,0,0-24.5-29.9V0Zm17.4,0V-30.25a13.281,13.281,0,0,1,1-5.25,8.127,8.127,0,0,1,3.125-3.725A10.221,10.221,0,0,1-4.65-40.6a14.114,14.114,0,0,1,3.05.3,18.116,18.116,0,0,1,2.3.65l-1.35,5.5a7.259,7.259,0,0,0-3-.65,3.116,3.116,0,0,0-2.5,1.05,5.1,5.1,0,0,0-.9,3.35V0ZM-35.6-22.2v-5.45l4.2-.35H-1.75v5.8ZM11.3.7A14.269,14.269,0,0,1,4.25-1.05,12.954,12.954,0,0,1-.775-6.1,15.742,15.742,0,0,1-2.65-14a16.375,16.375,0,0,1,1.075-6.1,13.919,13.919,0,0,1,2.95-4.625,13.357,13.357,0,0,1,4.2-2.95A11.839,11.839,0,0,1,10.4-28.7a11.418,11.418,0,0,1,6.45,1.725,10.707,10.707,0,0,1,3.925,4.75A17.109,17.109,0,0,1,22.1-15.3a17.912,17.912,0,0,1-.1,1.925,9.864,9.864,0,0,1-.25,1.475H4.5A8.737,8.737,0,0,0,5.85-8.1a6.607,6.607,0,0,0,2.7,2.325A8.72,8.72,0,0,0,12.3-5a10.54,10.54,0,0,0,3.2-.475A13.881,13.881,0,0,0,18.55-6.9l2.5,4.5a18.451,18.451,0,0,1-4.6,2.25A16.192,16.192,0,0,1,11.3.7ZM4.35-16.85H15.8a7.205,7.205,0,0,0-1.275-4.475A4.734,4.734,0,0,0,10.5-23a5.886,5.886,0,0,0-2.75.675,5.854,5.854,0,0,0-2.2,2.05A8.411,8.411,0,0,0,4.35-16.85ZM37.05.7A13.889,13.889,0,0,1,30.1-1.05a12.591,12.591,0,0,1-4.9-5.025A16.237,16.237,0,0,1,23.4-14a15.073,15.073,0,0,1,1.975-7.925,13.449,13.449,0,0,1,5.25-5.025A14.782,14.782,0,0,1,37.7-28.7a11.381,11.381,0,0,1,4.6.875,13.064,13.064,0,0,1,3.55,2.275l-3.5,4.65a7.507,7.507,0,0,0-2.05-1.35,5.528,5.528,0,0,0-2.2-.45,6.684,6.684,0,0,0-3.775,1.075,6.919,6.919,0,0,0-2.5,3.025A11.159,11.159,0,0,0,30.95-14a11.159,11.159,0,0,0,.875,4.6,7.052,7.052,0,0,0,2.45,3.025A6.193,6.193,0,0,0,37.85-5.3a6.812,6.812,0,0,0,2.9-.65,11.756,11.756,0,0,0,2.55-1.6L46.2-2.7A13.06,13.06,0,0,1,41.775-.125,14.627,14.627,0,0,1,37.05.7ZM57.9.7A9.711,9.711,0,0,1,52.55-.625,7.41,7.41,0,0,1,49.6-4.3a15.186,15.186,0,0,1-.9-5.45V-22.2H44.75v-5.45L49.1-28l.85-7.55H56V-28h6.95v5.8H56V-9.8a5.31,5.31,0,0,0,1,3.55A3.574,3.574,0,0,0,59.85-5.1a5.62,5.62,0,0,0,1.45-.2q.75-.2,1.3-.4L63.85-.35Q62.7,0,61.225.35A14.442,14.442,0,0,1,57.9.7Z" transform="translate(-1998.8 -878)"/>
    <path id="패스_8" data-name="패스 8" d="M-11.375-17.925h6.85v2.675h-6.85Zm0,5.15h6.85v2.65h-6.85Zm-3.85-6.925a6.507,6.507,0,0,1,3.125.737A5.787,5.787,0,0,1-9.912-16.95,5.325,5.325,0,0,1-9.1-14.025a5.28,5.28,0,0,1-.812,2.9A5.787,5.787,0,0,1-12.1-9.113a6.507,6.507,0,0,1-3.125.738,6.474,6.474,0,0,1-3.087-.738,5.762,5.762,0,0,1-2.2-2.013,5.28,5.28,0,0,1-.812-2.9,5.325,5.325,0,0,1,.813-2.925,5.762,5.762,0,0,1,2.2-2.013A6.474,6.474,0,0,1-15.225-19.7Zm0,2.8a3.307,3.307,0,0,0-1.5.338,2.555,2.555,0,0,0-1.063.975,2.956,2.956,0,0,0-.387,1.563,2.922,2.922,0,0,0,.387,1.525,2.531,2.531,0,0,0,1.063.987,3.307,3.307,0,0,0,1.5.337,3.343,3.343,0,0,0,1.538-.337A2.469,2.469,0,0,0-12.65-12.5a3,3,0,0,0,.375-1.525,3.034,3.034,0,0,0-.375-1.562,2.491,2.491,0,0,0-1.038-.975A3.343,3.343,0,0,0-15.225-16.9Zm9.65-4.025h3.35v13.55h-3.35ZM-10.075-6.9a14.541,14.541,0,0,1,4.212.538A6.177,6.177,0,0,1-3.125-4.8,3.431,3.431,0,0,1-2.15-2.35,3.474,3.474,0,0,1-3.125.113,6.113,6.113,0,0,1-5.862,1.688a14.541,14.541,0,0,1-4.212.538A14.672,14.672,0,0,1-14.3,1.688,6.022,6.022,0,0,1-17.037.113,3.5,3.5,0,0,1-18-2.35a3.455,3.455,0,0,1,.963-2.45A6.085,6.085,0,0,1-14.3-6.363,14.672,14.672,0,0,1-10.075-6.9Zm0,2.55a12.373,12.373,0,0,0-2.55.225,3.655,3.655,0,0,0-1.575.662,1.385,1.385,0,0,0-.525,1.112A1.421,1.421,0,0,0-14.2-1.225a3.464,3.464,0,0,0,1.575.663,13.079,13.079,0,0,0,2.55.212A13.038,13.038,0,0,0-7.512-.562,3.45,3.45,0,0,0-5.95-1.225,1.421,1.421,0,0,0-5.425-2.35,1.385,1.385,0,0,0-5.95-3.463a3.643,3.643,0,0,0-1.562-.662A12.334,12.334,0,0,0-10.075-4.35ZM17.85-17.625h3.975V-14.9H17.85Zm0,5.05h3.975v2.7H17.85Zm-2.325-8.35H18.85V-6.25H15.525ZM11.35-6.025a15.107,15.107,0,0,1,4.125.5A6.17,6.17,0,0,1,18.163-4.1,2.985,2.985,0,0,1,19.1-1.9,3.013,3.013,0,0,1,18.163.325a6.076,6.076,0,0,1-2.687,1.413,15.473,15.473,0,0,1-4.125.487A15.583,15.583,0,0,1,7.2,1.738,6.175,6.175,0,0,1,4.5.325,2.994,2.994,0,0,1,3.55-1.9,2.966,2.966,0,0,1,4.5-4.1,6.272,6.272,0,0,1,7.2-5.525,15.214,15.214,0,0,1,11.35-6.025Zm0,2.525a10.938,10.938,0,0,0-3.338.387Q6.875-2.725,6.875-1.9q0,.85,1.137,1.25a10.616,10.616,0,0,0,3.338.4,10.511,10.511,0,0,0,3.313-.4Q15.8-1.05,15.8-1.9q0-.825-1.138-1.213A10.829,10.829,0,0,0,11.35-3.5ZM.65-18.75h13.6v2.6H.65Zm6.8,3.375a7.943,7.943,0,0,1,2.975.512,4.652,4.652,0,0,1,2,1.45,3.474,3.474,0,0,1,.725,2.188,3.437,3.437,0,0,1-.725,2.163,4.652,4.652,0,0,1-2,1.45A7.943,7.943,0,0,1,7.45-7.1a7.967,7.967,0,0,1-2.963-.512,4.643,4.643,0,0,1-2.013-1.45,3.437,3.437,0,0,1-.725-2.163,3.474,3.474,0,0,1,.725-2.188,4.643,4.643,0,0,1,2.013-1.45A7.967,7.967,0,0,1,7.45-15.375Zm0,2.4a3.348,3.348,0,0,0-1.8.438,1.446,1.446,0,0,0-.7,1.313,1.4,1.4,0,0,0,.7,1.275,3.426,3.426,0,0,0,1.8.425A3.413,3.413,0,0,0,9.263-9.95a1.4,1.4,0,0,0,.688-1.275,1.453,1.453,0,0,0-.687-1.312A3.335,3.335,0,0,0,7.45-12.975ZM5.8-21.1H9.1v3.75H5.8Z" transform="translate(-2037.675 -846.2)"/>
  </g>
</svg>
