<svg xmlns="http://www.w3.org/2000/svg" width="410" height="220" viewBox="0 0 410 220">
  <g id="그룹_28" data-name="그룹 28" transform="translate(2202 1438)">
    <rect id="사각형_96" data-name="사각형 96" width="410" height="220" transform="translate(-2202 -1438)" fill="#dbdbdb"/>
    <path id="패스_4" data-name="패스 4" d="M-21.6-3.2H-.625V-.5H-21.6Zm8.7-5.15h3.325v5.875H-12.9Zm-.1-11.3h2.9v1.675a9.864,9.864,0,0,1-.413,2.85,9.753,9.753,0,0,1-1.225,2.6,10.376,10.376,0,0,1-1.988,2.213,11.952,11.952,0,0,1-2.688,1.688A13.584,13.584,0,0,1-19.75-7.6l-1.375-2.775a11.867,11.867,0,0,0,2.875-.8,10.46,10.46,0,0,0,2.263-1.312,8.244,8.244,0,0,0,1.65-1.675,7.245,7.245,0,0,0,1-1.888A5.859,5.859,0,0,0-13-17.975Zm.625,0H-9.45v1.675a5.929,5.929,0,0,0,.338,1.95,7.048,7.048,0,0,0,1,1.875,8.566,8.566,0,0,0,1.638,1.663,10.076,10.076,0,0,0,2.262,1.313,12.091,12.091,0,0,0,2.862.8L-2.725-7.6A14.517,14.517,0,0,1-6.05-8.638,11.977,11.977,0,0,1-8.725-10.3a10.257,10.257,0,0,1-1.988-2.187,9.805,9.805,0,0,1-1.238-2.6,9.8,9.8,0,0,1-.425-2.887ZM17.3-20.95h3.15V2.2H17.3Zm-2.95,8.725H18.2V-9.55H14.35ZM7.45-18.1h3.2a25.207,25.207,0,0,1-.413,4.65A16.476,16.476,0,0,1,8.875-9.288a14.285,14.285,0,0,1-2.562,3.65A18.506,18.506,0,0,1,2.275-2.525L.35-4.85A16.034,16.034,0,0,0,4.537-8.262a11.462,11.462,0,0,0,2.238-4.125,17.586,17.586,0,0,0,.675-5.038Zm-5.95,0H8.425v2.65H1.5Zm10.65-2.25h3.125V1.2H12.15Z" transform="translate(-2079.4 -1286.35)"/>
    <path id="패스_3" data-name="패스 3" d="M-103.2,0l-.05-37.05,7.4.05V0Zm12.85,0V-28h6l.55,3.7h.15a21.406,21.406,0,0,1,4.05-3.1,9.738,9.738,0,0,1,5.05-1.3q4.55,0,6.6,2.975t2.05,8.275V0h-7.35V-16.55q0-3.25-.925-4.55A3.455,3.455,0,0,0-77.2-22.4a5.479,5.479,0,0,0-2.975.8A16.751,16.751,0,0,0-83-19.25V0Zm39.3.7A9.711,9.711,0,0,1-56.4-.625,7.41,7.41,0,0,1-59.35-4.3a15.186,15.186,0,0,1-.9-5.45V-22.2H-64.2v-5.45l4.35-.35.85-7.55h6.05V-28H-46v5.8h-6.95V-9.8a5.31,5.31,0,0,0,1,3.55A3.574,3.574,0,0,0-49.1-5.1a5.62,5.62,0,0,0,1.45-.2q.75-.2,1.3-.4L-45.1-.35q-1.15.35-2.625.7A14.442,14.442,0,0,1-51.05.7Zm7.8-.7V-28h6l.55,4.95h.15a12.332,12.332,0,0,1,3.65-4.2,7.488,7.488,0,0,1,4.3-1.45,8.505,8.505,0,0,1,1.925.175,8.837,8.837,0,0,1,1.325.425l-1.2,6.35q-.8-.2-1.425-.325A8.24,8.24,0,0,0-29.55-22.2a5.928,5.928,0,0,0-3.375,1.25A9.211,9.211,0,0,0-35.9-16.7V0Zm29.7.7a13.081,13.081,0,0,1-6.575-1.75A13.338,13.338,0,0,1-25.1-6.075,15.542,15.542,0,0,1-27-14a15.542,15.542,0,0,1,1.9-7.925,13.338,13.338,0,0,1,4.975-5.025A13.081,13.081,0,0,1-13.55-28.7a13,13,0,0,1,5.05,1,13.432,13.432,0,0,1,4.3,2.875,13.427,13.427,0,0,1,3,4.6A16.523,16.523,0,0,1-.1-14,15.542,15.542,0,0,1-2-6.075,13.338,13.338,0,0,1-6.975-1.05,13.081,13.081,0,0,1-13.55.7Zm0-6a4.955,4.955,0,0,0,3.225-1.075,6.528,6.528,0,0,0,2-3.025A14.085,14.085,0,0,0-7.65-14a14.085,14.085,0,0,0-.675-4.6,6.528,6.528,0,0,0-2-3.025A4.955,4.955,0,0,0-13.55-22.7a4.955,4.955,0,0,0-3.225,1.075,6.528,6.528,0,0,0-2,3.025A14.085,14.085,0,0,0-19.45-14a14.085,14.085,0,0,0,.675,4.6,6.528,6.528,0,0,0,2,3.025A4.955,4.955,0,0,0-13.55-5.3ZM12.9.7A10.546,10.546,0,0,1,6.825-1.05,11.193,11.193,0,0,1,2.85-6.1,20.167,20.167,0,0,1,1.45-14a17,17,0,0,1,1.675-7.825A13.109,13.109,0,0,1,7.5-26.9a10.109,10.109,0,0,1,5.7-1.8,8.71,8.71,0,0,1,3.975.825A13.659,13.659,0,0,1,20.3-25.65l-.25-4.4V-39.9H27.4V0h-6l-.55-2.9h-.2A15.287,15.287,0,0,1,17.1-.35,8.914,8.914,0,0,1,12.9.7Zm1.9-6.05a5.84,5.84,0,0,0,2.775-.675A7.941,7.941,0,0,0,20.05-8.25v-12.3a7.647,7.647,0,0,0-2.575-1.625A7.876,7.876,0,0,0,14.8-22.65a4.752,4.752,0,0,0-2.875.975A6.673,6.673,0,0,0,9.8-18.8,12.138,12.138,0,0,0,9-14.1a14.985,14.985,0,0,0,.675,4.85A5.965,5.965,0,0,0,11.65-6.325,5.1,5.1,0,0,0,14.8-5.35ZM40.6.7Q36.05.7,34-2.275T31.95-10.55V-28h7.3v16.55q0,3.25.95,4.55a3.523,3.523,0,0,0,3.05,1.3,5.354,5.354,0,0,0,2.975-.825A11.2,11.2,0,0,0,48.9-9.1V-28h7.35V0h-6L49.7-4.05h-.2A16.314,16.314,0,0,1,45.6-.6,9.31,9.31,0,0,1,40.6.7ZM73,.7a13.889,13.889,0,0,1-6.95-1.75,12.591,12.591,0,0,1-4.9-5.025A16.237,16.237,0,0,1,59.35-14a15.073,15.073,0,0,1,1.975-7.925,13.449,13.449,0,0,1,5.25-5.025A14.782,14.782,0,0,1,73.65-28.7a11.381,11.381,0,0,1,4.6.875A13.064,13.064,0,0,1,81.8-25.55L78.3-20.9a7.507,7.507,0,0,0-2.05-1.35,5.528,5.528,0,0,0-2.2-.45,6.684,6.684,0,0,0-3.775,1.075,6.919,6.919,0,0,0-2.5,3.025A11.159,11.159,0,0,0,66.9-14a11.159,11.159,0,0,0,.875,4.6,7.052,7.052,0,0,0,2.45,3.025A6.193,6.193,0,0,0,73.8-5.3a6.812,6.812,0,0,0,2.9-.65,11.757,11.757,0,0,0,2.55-1.6l2.9,4.85A13.06,13.06,0,0,1,77.725-.125,14.627,14.627,0,0,1,73,.7ZM94.9.7a14.269,14.269,0,0,1-7.05-1.75A12.954,12.954,0,0,1,82.825-6.1,15.742,15.742,0,0,1,80.95-14a16.375,16.375,0,0,1,1.075-6.1,13.919,13.919,0,0,1,2.95-4.625,13.357,13.357,0,0,1,4.2-2.95A11.839,11.839,0,0,1,94-28.7a11.418,11.418,0,0,1,6.45,1.725,10.707,10.707,0,0,1,3.925,4.75A17.109,17.109,0,0,1,105.7-15.3a17.911,17.911,0,0,1-.1,1.925,9.864,9.864,0,0,1-.25,1.475H88.1a8.737,8.737,0,0,0,1.35,3.8,6.607,6.607,0,0,0,2.7,2.325A8.72,8.72,0,0,0,95.9-5a10.54,10.54,0,0,0,3.2-.475A13.881,13.881,0,0,0,102.15-6.9l2.5,4.5a18.451,18.451,0,0,1-4.6,2.25A16.192,16.192,0,0,1,94.9.7ZM87.95-16.85H99.4a7.205,7.205,0,0,0-1.275-4.475A4.734,4.734,0,0,0,94.1-23a5.886,5.886,0,0,0-2.75.675,5.854,5.854,0,0,0-2.2,2.05A8.411,8.411,0,0,0,87.95-16.85Z" transform="translate(-1997.75 -1318)"/>
  </g>
</svg>
