<svg xmlns="http://www.w3.org/2000/svg" width="410" height="220" viewBox="0 0 410 220">
  <g id="그룹_25" data-name="그룹 25" transform="translate(2202 778)">
    <rect id="사각형_93" data-name="사각형 93" width="410" height="220" transform="translate(-2202 -778)" fill="#dbdbdb"/>
    <path id="패스_9" data-name="패스 9" d="M-119.975,0V-37.05h12.15a23.089,23.089,0,0,1,7.375,1.1,10.588,10.588,0,0,1,5.2,3.625A11.171,11.171,0,0,1-93.325-25.4a11.72,11.72,0,0,1-1.925,6.925,11.346,11.346,0,0,1-5.15,4.025,19.172,19.172,0,0,1-7.225,1.3h-4.95V0Zm7.4-19h4.45q3.8,0,5.675-1.6a5.961,5.961,0,0,0,1.875-4.8q0-3.2-1.975-4.475a10.826,10.826,0,0,0-5.825-1.275h-4.2Zm22.35,19V-39.9h7.35v10.05l-.35,5.25a19.515,19.515,0,0,1,3.8-2.85,9.767,9.767,0,0,1,5-1.25q4.55,0,6.6,2.975t2.05,8.275V0h-7.35V-16.55q0-3.25-.925-4.55a3.455,3.455,0,0,0-3.025-1.3,5.479,5.479,0,0,0-2.975.8,16.751,16.751,0,0,0-2.825,2.35V0Zm29,0V-28h7.35V0Zm3.7-32.55a4.358,4.358,0,0,1-3.1-1.075,3.81,3.81,0,0,1-1.15-2.925,3.828,3.828,0,0,1,1.15-2.9,4.3,4.3,0,0,1,3.1-1.1,4.339,4.339,0,0,1,3.05,1.1,3.747,3.747,0,0,1,1.2,2.9,3.729,3.729,0,0,1-1.2,2.925A4.4,4.4,0,0,1-57.525-32.55ZM-42.075.7a6.919,6.919,0,0,1-4.1-1.075,6.025,6.025,0,0,1-2.175-3,13.514,13.514,0,0,1-.675-4.475V-39.9h7.35V-7.55A2.528,2.528,0,0,0-41.2-5.8a1.362,1.362,0,0,0,.975.5,3.655,3.655,0,0,0,.45-.025q.2-.025.55-.075l.9,5.45A10.8,10.8,0,0,1-39.9.5,10.4,10.4,0,0,1-42.075.7Zm17.5,0A13.081,13.081,0,0,1-31.15-1.05a13.338,13.338,0,0,1-4.975-5.025A15.542,15.542,0,0,1-38.025-14a15.542,15.542,0,0,1,1.9-7.925A13.338,13.338,0,0,1-31.15-26.95a13.081,13.081,0,0,1,6.575-1.75,13,13,0,0,1,5.05,1,13.432,13.432,0,0,1,4.3,2.875,13.427,13.427,0,0,1,3,4.6A16.523,16.523,0,0,1-11.125-14a15.542,15.542,0,0,1-1.9,7.925A13.338,13.338,0,0,1-18-1.05,13.081,13.081,0,0,1-24.575.7Zm0-6A4.955,4.955,0,0,0-21.35-6.375a6.528,6.528,0,0,0,2-3.025,14.085,14.085,0,0,0,.675-4.6,14.085,14.085,0,0,0-.675-4.6,6.528,6.528,0,0,0-2-3.025A4.955,4.955,0,0,0-24.575-22.7,4.955,4.955,0,0,0-27.8-21.625a6.528,6.528,0,0,0-2,3.025,14.085,14.085,0,0,0-.675,4.6A14.085,14.085,0,0,0-29.8-9.4a6.528,6.528,0,0,0,2,3.025A4.955,4.955,0,0,0-24.575-5.3Zm24.1,6A15.8,15.8,0,0,1-6.15-.4a18.139,18.139,0,0,1-4.975-2.8l3.35-4.65A19.3,19.3,0,0,0-4.1-5.625,9.183,9.183,0,0,0-.275-4.8,4.71,4.71,0,0,0,2.8-5.625,2.656,2.656,0,0,0,3.775-7.75a2.248,2.248,0,0,0-.85-1.775,8.521,8.521,0,0,0-2.2-1.3q-1.35-.575-2.8-1.125a26.71,26.71,0,0,1-3.475-1.7,9.274,9.274,0,0,1-2.875-2.575,6.478,6.478,0,0,1-1.15-3.925,7.719,7.719,0,0,1,1.3-4.425A8.794,8.794,0,0,1-4.65-27.6,12.813,12.813,0,0,1,.875-28.7,13.293,13.293,0,0,1,6.3-27.65a18.643,18.643,0,0,1,4.075,2.4l-3.3,4.45A15.9,15.9,0,0,0,4.1-22.55a7.43,7.43,0,0,0-3.025-.65,4.418,4.418,0,0,0-2.85.75,2.419,2.419,0,0,0-.9,1.95,2.163,2.163,0,0,0,.75,1.675A6.572,6.572,0,0,0,.125-17.65q1.3.5,2.75,1.05A26.589,26.589,0,0,1,5.65-15.425,12.814,12.814,0,0,1,8.175-13.8,6.947,6.947,0,0,1,10-11.475a7.486,7.486,0,0,1,.675,3.325A8.23,8.23,0,0,1,9.4-3.675a8.691,8.691,0,0,1-3.75,3.2A14.235,14.235,0,0,1-.475.7Zm25.45,0A13.081,13.081,0,0,1,18.4-1.05a13.338,13.338,0,0,1-4.975-5.025A15.542,15.542,0,0,1,11.525-14a15.542,15.542,0,0,1,1.9-7.925A13.338,13.338,0,0,1,18.4-26.95a13.081,13.081,0,0,1,6.575-1.75,13,13,0,0,1,5.05,1,13.432,13.432,0,0,1,4.3,2.875,13.427,13.427,0,0,1,3,4.6A16.523,16.523,0,0,1,38.425-14a15.542,15.542,0,0,1-1.9,7.925A13.338,13.338,0,0,1,31.55-1.05,13.081,13.081,0,0,1,24.975.7Zm0-6A4.955,4.955,0,0,0,28.2-6.375a6.528,6.528,0,0,0,2-3.025,14.085,14.085,0,0,0,.675-4.6,14.085,14.085,0,0,0-.675-4.6,6.528,6.528,0,0,0-2-3.025A4.955,4.955,0,0,0,24.975-22.7a4.955,4.955,0,0,0-3.225,1.075,6.528,6.528,0,0,0-2,3.025,14.085,14.085,0,0,0-.675,4.6,14.085,14.085,0,0,0,.675,4.6,6.528,6.528,0,0,0,2,3.025A4.955,4.955,0,0,0,24.975-5.3Zm16.6,16.05V-28h6l.55,2.9h.15a18.557,18.557,0,0,1,3.875-2.55,9.767,9.767,0,0,1,4.375-1.05,9.785,9.785,0,0,1,5.9,1.775,11.319,11.319,0,0,1,3.775,4.95,19.467,19.467,0,0,1,1.325,7.525,18.171,18.171,0,0,1-1.7,8.2A12.84,12.84,0,0,1,61.4-1.075,10.4,10.4,0,0,1,55.625.7,8.63,8.63,0,0,1,52.05-.1a12.967,12.967,0,0,1-3.375-2.25l.25,4.55v8.55Zm12.45-16.1a5.005,5.005,0,0,0,3-.975A6.54,6.54,0,0,0,59.175-9.3a13.708,13.708,0,0,0,.8-5.05,14.957,14.957,0,0,0-.6-4.525,5.694,5.694,0,0,0-1.8-2.825,4.927,4.927,0,0,0-3.15-.95,5.767,5.767,0,0,0-2.725.7,11.924,11.924,0,0,0-2.775,2.15V-7.45a8.022,8.022,0,0,0,2.65,1.65A7.5,7.5,0,0,0,54.025-5.35ZM70.775,0V-39.9h7.35v10.05l-.35,5.25a19.515,19.515,0,0,1,3.8-2.85,9.767,9.767,0,0,1,5-1.25q4.55,0,6.6,2.975t2.05,8.275V0h-7.35V-16.55q0-3.25-.925-4.55a3.455,3.455,0,0,0-3.025-1.3,5.479,5.479,0,0,0-2.975.8,16.751,16.751,0,0,0-2.825,2.35V0Zm31.45,11.2a13.288,13.288,0,0,1-2.15-.15,12.692,12.692,0,0,1-1.7-.4l1.35-5.6q.4.1.925.225a4.418,4.418,0,0,0,1.025.125,4.7,4.7,0,0,0,3.4-1.2,7.231,7.231,0,0,0,1.85-3.05l.5-1.7L96.525-28h7.4l4.45,13q.65,1.9,1.2,3.9t1.15,4h.25q.45-2,.975-3.975T112.975-15l3.85-13h7.05L113.925.85a26.4,26.4,0,0,1-2.75,5.625A10.854,10.854,0,0,1,107.5,10,10.6,10.6,0,0,1,102.225,11.2Z" transform="translate(-1999.025 -657)"/>
    <path id="패스_10" data-name="패스 10" d="M-16.425-17.2h2.7v.85a8.116,8.116,0,0,1-.725,3.412,7.186,7.186,0,0,1-2.2,2.725A9.586,9.586,0,0,1-20.375-8.55l-1.45-2.55a9.56,9.56,0,0,0,2.438-.875,6.655,6.655,0,0,0,1.675-1.25,4.639,4.639,0,0,0,.975-1.5,4.432,4.432,0,0,0,.313-1.625Zm.65,0H-13.1v.85a3.715,3.715,0,0,0,.325,1.512,4.54,4.54,0,0,0,1,1.4,6.716,6.716,0,0,0,1.688,1.175,9.335,9.335,0,0,0,2.387.788L-9.075-8.95a10.709,10.709,0,0,1-2.938-1.088,7.759,7.759,0,0,1-2.1-1.687,6.636,6.636,0,0,1-1.25-2.163,7.451,7.451,0,0,1-.413-2.462Zm-5.2-1.825h12.45V-16.4h-12.45Zm4.55-2H-13.1v3.475h-3.325Zm7.325,5.45h5.725V-12.9H-9.1Zm3.525-5.35H-2.25V-8.95H-5.575ZM-17.55-8.075h15.3v6.2H-14.225V1H-17.5V-4.25H-5.525v-1.3H-17.55ZM-17.5-.45H-1.575V2.075H-17.5ZM.65-18.9l13.6-.025.025,2.625H.65Zm6.825,3.35a7.135,7.135,0,0,1,2.938.525,4.869,4.869,0,0,1,2.012,1.5,3.447,3.447,0,0,1,.7,2.225,3.5,3.5,0,0,1-.7,2.238,4.731,4.731,0,0,1-2.012,1.5,7.276,7.276,0,0,1-2.938.512A7.436,7.436,0,0,1,4.5-7.562a4.722,4.722,0,0,1-2.025-1.5,3.5,3.5,0,0,1-.7-2.238,3.447,3.447,0,0,1,.7-2.225,4.858,4.858,0,0,1,2.025-1.5A7.292,7.292,0,0,1,7.475-15.55Zm-.025,2.5a3.348,3.348,0,0,0-1.8.437,1.469,1.469,0,0,0-.7,1.338,1.453,1.453,0,0,0,.7,1.3,3.326,3.326,0,0,0,1.825.45,3.211,3.211,0,0,0,1.788-.45,1.46,1.46,0,0,0,.688-1.3,1.514,1.514,0,0,0-.675-1.35A3.123,3.123,0,0,0,7.45-13.05Zm8.1-7.875h3.3v14.5H15.525Zm2.375,5.975,4-.025v2.7l-3.975.025Zm-14.5,9.5H18.85V2.2l-3.325.025.025-5.05H3.4ZM5.8-21.05l3.3-.025V-17.4H5.8Z" transform="translate(-2097.175 -614.725)"/>
  </g>
</svg>
